<svg width="407" height="424" viewBox="0 0 407 424" fill="none" xmlns="http://www.w3.org/2000/svg">
<path fill-rule="evenodd" clip-rule="evenodd" d="M0.368621 423.831C0.801132 424.19 406.25 423.92 406.69 423.56C407.108 423.219 407.089 379.608 406.671 379.261C406.457 379.084 388.945 379.002 342.33 378.959C271.744 378.893 277.926 379.019 275.125 377.599C269.815 374.909 269.21 368.188 273.81 362.983C274.323 362.402 288.232 349.959 304.72 335.332C339.835 304.178 335.68 308.011 335.68 306.764C335.68 305.506 339.707 309.154 304.396 278.421C287.731 263.917 273.53 251.424 272.838 250.66C268.211 245.55 268.744 238.873 274.004 236.071C277.194 234.371 270.838 234.515 342.559 234.515C391.952 234.515 406.498 234.456 406.701 234.253C407.108 233.847 407.079 190.069 406.672 189.731C406.461 189.556 388.858 189.472 342.878 189.426C272.204 189.355 278.384 189.493 275.181 187.916C269.423 185.082 269.251 177.532 274.823 172.185C275.402 171.628 289.111 159.445 305.287 145.112C338.471 115.706 335.68 118.283 335.68 117.044C335.68 115.799 338.679 118.518 304.74 88.9878C288.023 74.4427 273.738 61.8904 272.993 61.0936C267.978 55.722 268.713 48.8696 274.605 46.0581C277.479 44.687 272.902 44.7736 342.688 44.7694C391.976 44.7666 406.498 44.7063 406.701 44.5034C407.142 44.0629 407.075 0.53462 406.633 0.168012C406.203 -0.188983 0.749508 0.0810241 0.310001 0.438446C-0.0805268 0.756531 -0.0914585 44.3316 0.299069 44.722C0.501986 44.9249 15.4369 44.9852 66.1705 44.9881C138.683 44.9924 133.315 44.884 136.409 46.4059C141.987 49.1498 142.443 55.9808 137.417 61.5279C136.962 62.0305 123.356 74.1624 107.18 88.4881C74.0718 117.811 75.9118 116.115 75.9118 117.306C75.9118 118.474 73.2798 116.094 106.415 144.894C138.244 172.558 138.621 172.896 140.098 175.055C144.074 180.865 141.712 187.139 134.809 189.103L133.092 189.592L66.856 189.65C18.7916 189.691 0.540478 189.774 0.328597 189.95C-0.0787677 190.288 -0.10785 234.065 0.299077 234.471C0.501994 234.674 15.4474 234.734 66.2368 234.734C138.781 234.734 133.44 234.631 136.335 236.085C141.836 238.849 142.451 245.717 137.662 250.899C136.952 251.667 123.285 263.9 107.29 278.085C73.1495 308.361 75.9118 305.812 75.9118 307.03C75.9118 308.198 71.7813 304.465 106.964 335.094C123.619 349.593 137.848 362.101 138.583 362.888C143.588 368.246 143.064 374.797 137.393 377.776C134.405 379.346 140.262 379.225 66.8265 379.229C15.5821 379.231 0.502 379.291 0.299084 379.494C-0.142829 379.936 -0.0743846 423.463 0.368621 423.831ZM140.51 304.015C141.044 301.499 142.374 298.979 144.505 296.446C145.355 295.435 204.492 242.533 205.238 242.116C205.404 242.023 205.685 242.003 205.861 242.07C206.584 242.348 265.87 295.043 267.087 296.49C272.468 302.887 272.813 309.919 268.052 316.164C264.954 320.227 206.387 372.096 205.534 371.532C203.553 370.221 145.429 318.379 144.204 316.831C140.829 312.564 139.601 308.303 140.51 304.015ZM140.855 112.971C142.44 108.2 141.547 109.082 175.083 79.1764C208.063 49.7661 205.419 52.0429 206.081 52.4821C207.064 53.1342 264.779 104.294 266.126 105.708C273.32 113.253 273.154 121.752 265.669 129.067C263.367 131.318 206.665 181.847 206.273 181.997C205.793 182.182 147.43 130.854 145.014 128.123C140.759 123.312 139.248 117.809 140.855 112.971Z" fill="black"/>
</svg>
